<svg xmlns="http://www.w3.org/2000/svg" width="215" height="458"><path fill="#f2f2f2" d="M27 0h161c14.912 0 27 12.088 27 27v404c0 14.912-12.088 27-27 27H27c-14.912 0-27-12.088-27-27V27C0 12.088 12.088 0 27 0z"/><path fill="#acacac" d="M92.5 36h31a2.5 2.5 0 010 5h-31a2.5 2.5 0 010-5z"/><path fill="#fafafa" d="M107.19 407.807c11.559 0 20.929 9.346 20.929 20.875s-9.37 20.875-20.928 20.875c-11.559 0-20.928-9.346-20.928-20.875s9.37-20.875 20.928-20.875z"/><path fill="#bababa" d="M102.88 420.495h8.82a3.717 3.717 0 013.72 3.712v8.797a3.717 3.717 0 01-3.72 3.712h-8.82a3.717 3.717 0 01-3.722-3.712v-8.797a3.717 3.717 0 013.721-3.712zm-2.007 4.641v6.925a2.925 2.925 0 002.93 2.922h6.942a2.925 2.925 0 002.93-2.922v-6.925a2.926 2.926 0 00-2.93-2.922h-6.942a2.926 2.926 0 00-2.93 2.922z"/><path fill="#d8d8d8" d="M107.272 16.508a4.426 4.426 0 014.433 4.418 4.426 4.426 0 01-4.433 4.418 4.426 4.426 0 01-4.433-4.418 4.426 4.426 0 014.433-4.418z"/><path fill="#eb5055" d="M107.272 18.963c1.088 0 1.97.88 1.97 1.965a1.967 1.967 0 01-1.97 1.965c-1.088 0-1.97-.88-1.97-1.965s.882-1.965 1.97-1.965z"/></svg>