<svg xmlns="http://www.w3.org/2000/svg" width="32" height="28"><path fill="#666d89" d="M29.192 16.192L18.14 27.122a3.047 3.047 0 01-4.278 0L2.808 16.192a9.401 9.401 0 010-13.4C6.44-.799 12.24-.874 16 2.505c3.76-3.38 9.562-3.304 13.192.287a9.401 9.401 0 010 13.4zm-1.427-11.99c-2.842-2.812-7.416-2.91-10.409-.222L16 5.2l-1.356-1.22c-2.993-2.689-7.565-2.59-10.409.222a7.429 7.429 0 000 10.579l11.053 10.93c.391.39 1.032.39 1.425 0l11.052-10.93a7.429 7.429 0 000-10.58zM9.752 5.526a.5.5 0 01-.5.5H9.25A3.248 3.248 0 006 9.27v.001a.5.5 0 01-1 0 4.247 4.247 0 014.247-4.244h.004a.5.5 0 01.5.499z"/></svg>